<svg xmlns="http://www.w3.org/2000/svg" viewBox="0 0 58 58"><g><rect width="58" height="58" rx="6" fill="#000"/><svg viewBox="0 0 58 54" width="45" height="45" x="7" y="7" fill="#fff"><path transform="translate(-2.5 40)" d="M11.23-23.47L22.54-35.06L28.80-28.66L28.80 1.01L22.25 5.47L11.23-5.76L11.23-23.47ZM22.46-2.66L22.46-26.57L17.57-21.60L17.57-7.70L22.46-2.66ZM2.52-14.62L7.70-19.94L7.70-9.36L2.52-14.62ZM40.18-10.73L40.18-1.44L47.02-8.42L51.19-4.25L33.84 13.39L33.84-40.18L51.12-22.61L46.94-18.50L40.18-25.34L40.18-16.06L46.94-16.06L46.94-10.73L40.18-10.73ZM54.79-8.14L54.79-18.79L60.05-13.46L54.79-8.14Z"/></svg></g></svg>